<?xml version="1.0" standalone="no"?>
<!DOCTYPE svg PUBLIC "-//W3C//DTD SVG 20010904//EN"
 "http://www.w3.org/TR/2001/REC-SVG-20010904/DTD/svg10.dtd">
<svg version="1.0" xmlns="http://www.w3.org/2000/svg"
 width="524.000000pt" height="524.000000pt" viewBox="0 0 524.000000 524.000000"
 preserveAspectRatio="xMidYMid meet">
<metadata>
Created by potrace 1.11, written by Peter Selinger 2001-2013
</metadata>
<g transform="translate(0.000000,524.000000) scale(0.100000,-0.100000)"
fill="#000000" stroke="none">
<path d="M2555 5052 c-34 -6 -147 -65 -152 -79 -3 -7 -12 -13 -21 -13 -8 0
-13 -3 -9 -6 3 -3 -5 -16 -18 -29 -14 -12 -22 -25 -18 -28 3 -4 2 -7 -3 -7 -6
0 -16 -16 -24 -35 -8 -19 -16 -35 -20 -35 -6 0 -9 -14 -12 -72 -2 -21 -7 -38
-11 -38 -5 0 -6 -8 -3 -17 3 -10 6 -36 8 -58 1 -22 8 -51 15 -64 6 -14 10 -28
7 -33 -3 -4 -2 -8 3 -8 4 0 14 -14 22 -32 20 -44 105 -126 151 -144 8 -3 30
-13 48 -21 34 -15 172 -26 172 -14 0 4 6 8 13 9 56 7 107 27 107 42 0 6 4 9 9
6 7 -5 61 49 108 108 54 67 74 229 40 325 -11 31 -24 58 -28 59 -5 2 -9 9 -9
15 0 24 -121 137 -147 137 -7 0 -13 5 -13 12 0 6 -3 9 -6 5 -3 -3 -18 -1 -33
5 -26 11 -139 17 -176 10z"/>
<path d="M2835 4270 c-10 -17 -18 -53 -18 -87 0 -18 -2 -33 -6 -33 -3 0 -7
-37 -9 -83 -3 -124 -6 -147 -16 -147 -4 0 -6 -9 -3 -20 3 -11 1 -23 -4 -26 -5
-3 -7 -9 -4 -14 3 -5 0 -12 -6 -15 -5 -4 -8 -13 -5 -21 3 -7 -3 -21 -12 -30
-9 -10 -16 -20 -15 -23 5 -11 -8 -41 -18 -41 -5 0 -8 -3 -7 -7 2 -14 -15 -48
-29 -56 -7 -5 -12 -11 -9 -15 2 -4 -3 -13 -12 -21 -13 -13 -14 -11 -8 15 13
47 18 77 21 119 1 22 4 45 5 50 1 6 1 12 0 15 -1 3 -4 16 -5 30 -9 63 -12 74
-33 130 -3 8 -4 19 -3 23 0 4 -6 10 -14 13 -8 4 -15 13 -15 21 0 18 -64 96
-139 171 -52 51 -57 53 -95 48 -47 -7 -56 -9 -111 -24 -22 -6 -53 -13 -69 -16
-49 -9 -153 -64 -179 -96 -14 -16 -31 -30 -37 -30 -6 0 -9 -4 -5 -9 3 -5 -2
-17 -11 -25 -8 -9 -13 -16 -9 -16 3 0 0 -10 -6 -22 -19 -36 -22 -124 -15 -483
3 -151 -3 -174 -37 -150 -12 8 -27 15 -34 15 -6 0 -24 5 -40 12 -15 6 -32 12
-38 13 -43 6 -85 19 -85 26 0 5 -7 6 -15 3 -8 -4 -15 -1 -15 7 0 7 -3 9 -6 6
-4 -3 -15 -2 -25 3 -10 6 -29 11 -43 12 -15 1 -26 6 -26 10 0 4 -9 8 -20 8
-10 0 -29 4 -42 9 -44 18 -63 24 -83 27 -11 2 -31 7 -45 10 -35 10 -81 11
-106 3 -11 -4 -35 -10 -52 -12 -76 -12 -181 -116 -260 -257 -20 -36 -40 -68
-46 -72 -22 -15 -12 -46 23 -69 19 -13 37 -24 40 -25 14 -2 57 -20 153 -63 37
-17 70 -31 74 -31 3 0 18 -9 33 -19 15 -11 34 -21 42 -23 8 -2 28 -16 45 -33
18 -16 44 -40 60 -52 37 -30 26 -38 -22 -17 -22 9 -43 16 -48 15 -4 -1 -14 3
-20 8 -7 6 -22 9 -34 6 -12 -2 -24 0 -27 6 -8 11 -125 12 -125 1 0 -5 -10 -8
-22 -7 -13 1 -28 -2 -34 -7 -7 -5 -16 -8 -20 -7 -10 2 -24 -3 -106 -39 -32
-13 -58 -29 -58 -35 0 -6 -3 -7 -6 -4 -4 4 -25 -3 -46 -15 -28 -16 -38 -27
-35 -40 3 -10 1 -16 -4 -12 -5 3 -9 -16 -9 -41 0 -25 -3 -44 -8 -42 -11 8 -4
-202 9 -260 7 -30 16 -50 22 -46 6 3 7 1 3 -5 -12 -19 51 -100 104 -133 30
-19 122 -55 133 -51 4 1 7 -2 7 -7 0 -5 11 -8 24 -8 13 0 39 -8 57 -17 18 -9
41 -13 52 -10 13 4 17 2 13 -5 -5 -7 3 -11 22 -11 16 0 43 -7 58 -15 16 -8 36
-15 45 -15 9 0 19 -3 23 -7 4 -4 13 -8 19 -8 25 -1 77 -17 77 -24 0 -3 23 -6
51 -6 l50 0 -35 -30 c-20 -16 -36 -33 -36 -37 0 -11 -63 -101 -80 -115 -8 -7
-11 -13 -6 -13 5 0 -1 -9 -14 -20 -13 -11 -19 -20 -14 -20 5 0 4 -4 -1 -8 -17
-12 -65 -80 -65 -92 0 -6 -4 -8 -10 -5 -5 3 -10 -1 -10 -9 0 -8 -6 -21 -13
-28 -15 -15 -68 -103 -80 -133 -8 -18 -13 -35 -20 -70 -2 -5 -6 -16 -10 -22
-5 -7 -4 -13 0 -13 5 0 9 -15 10 -32 0 -30 8 -79 14 -85 1 -2 2 -7 3 -11 2
-14 74 -126 101 -157 15 -16 47 -53 73 -81 l46 -51 33 30 c18 17 52 55 76 86
59 78 198 217 225 225 12 4 22 12 22 17 0 5 6 9 14 9 7 0 19 7 26 15 7 9 15
14 17 12 2 -2 25 6 51 19 48 23 71 23 40 0 -10 -7 -15 -16 -11 -19 3 -4 0 -7
-7 -7 -7 0 -23 -12 -36 -27 -30 -34 -101 -135 -103 -145 -1 -4 -3 -13 -5 -20
-6 -19 -18 -70 -23 -93 -7 -39 -8 -165 -2 -165 4 0 6 -8 5 -17 -2 -10 1 -33 5
-53 4 -19 10 -48 13 -65 7 -36 32 -56 100 -80 28 -10 67 -25 86 -34 19 -8 40
-16 45 -17 6 -2 25 -7 42 -13 30 -9 147 -8 183 1 56 15 124 73 178 153 15 22
33 46 40 53 6 7 12 17 12 22 0 5 6 15 13 22 6 7 53 74 102 148 50 74 92 137
95 140 6 6 12 30 13 48 1 21 10 4 13 -24 3 -30 27 -65 118 -179 36 -44 65 -85
65 -90 1 -6 11 -21 24 -35 13 -14 27 -33 33 -42 24 -43 149 -168 182 -182 20
-10 45 -21 54 -26 23 -13 195 -13 202 -1 4 5 24 12 46 16 22 4 38 11 35 15 -3
5 3 8 12 8 21 -1 145 57 137 64 -2 3 6 5 18 4 20 -1 23 3 20 33 -1 19 -10 43
-19 53 -9 10 -12 18 -7 18 5 0 4 4 -2 8 -5 4 -21 25 -34 47 -13 22 -27 42 -30
45 -12 10 -90 152 -90 165 0 7 -7 18 -15 25 -9 7 -14 19 -11 25 2 7 0 17 -6
23 -6 6 -11 25 -10 42 0 16 -3 30 -7 30 -5 0 -8 11 -8 25 0 14 1 25 3 25 3 0
20 -24 39 -54 39 -61 78 -106 91 -106 5 0 22 -14 37 -31 15 -17 27 -29 27 -26
0 3 25 -5 55 -18 30 -14 69 -27 87 -30 18 -4 35 -9 38 -13 3 -4 23 -7 45 -6
22 0 46 -4 54 -10 12 -9 13 -8 6 3 -6 11 -5 12 6 5 8 -5 29 -9 48 -9 26 -1 42
7 70 35 38 38 88 101 87 110 0 3 13 19 29 37 43 46 57 63 50 63 -3 0 1 10 9
23 25 38 45 162 30 195 -4 9 -9 26 -11 37 -2 11 -12 32 -23 47 -11 15 -20 31
-20 36 0 4 -16 25 -35 46 -19 21 -35 41 -35 43 0 6 -41 59 -65 84 -8 9 -15 21
-15 28 0 7 -4 9 -10 6 -5 -3 -10 -2 -10 3 0 8 -73 106 -90 122 -3 3 -20 24
-39 47 -23 31 -29 44 -19 47 7 3 38 12 68 21 30 10 59 21 65 26 5 5 19 9 31 9
12 0 44 9 70 20 26 11 56 22 68 25 12 2 22 4 24 6 1 1 5 2 10 4 4 1 16 5 27
10 11 4 49 19 85 33 112 43 167 85 207 157 10 17 16 33 15 38 -1 4 3 7 10 7 6
0 9 3 5 6 -3 3 0 22 7 42 14 42 12 214 -3 269 -5 19 -8 43 -6 55 6 27 -22 48
-55 42 -14 -2 -41 -7 -60 -10 -19 -3 -44 -8 -55 -12 -11 -3 -23 -7 -27 -8 -5
-1 -9 -2 -10 -4 -4 -2 -17 -5 -105 -24 -70 -16 -303 -19 -317 -5 -3 3 0 6 7 7
58 8 87 15 87 22 0 5 8 7 17 6 10 -2 33 5 50 15 18 10 33 15 33 11 0 -4 4 -2
8 3 4 6 23 22 42 35 51 36 162 160 143 160 -4 0 -3 4 3 8 16 10 84 159 84 183
0 23 -36 92 -63 123 -10 12 -26 35 -34 51 -36 69 -159 186 -177 168 -3 -3 -6
0 -6 7 0 7 -3 10 -7 7 -3 -4 -12 -2 -19 4 -18 15 -134 25 -134 12 0 -6 -11 -8
-24 -6 -13 3 -27 0 -30 -6 -4 -5 -13 -8 -21 -4 -8 3 -15 0 -15 -7 0 -6 -6 -10
-12 -8 -7 3 -24 -1 -37 -8 -14 -7 -28 -11 -33 -8 -4 3 -8 1 -8 -4 0 -6 -22
-16 -50 -23 -27 -7 -50 -16 -50 -21 0 -4 -11 -8 -25 -8 -14 0 -25 -4 -25 -10
0 -5 -7 -7 -15 -4 -8 4 -15 1 -15 -6 0 -6 -4 -9 -9 -6 -5 3 -22 -1 -37 -9 -16
-8 -36 -15 -44 -15 -8 0 -35 -11 -61 -23 l-45 -22 1 265 c0 146 -1 269 -4 275
-3 5 -6 23 -8 40 -5 51 -6 55 -14 55 -4 0 -10 12 -13 26 -7 25 -109 134 -126
134 -4 0 -25 8 -46 17 -22 9 -43 18 -49 19 -5 1 -48 12 -95 23 -126 32 -128
32 -135 21z m-40 -766 c28 -3 58 -7 68 -7 9 -1 17 -5 17 -10 0 -4 4 -6 9 -3
19 12 238 -72 304 -116 15 -11 27 -16 27 -13 0 4 21 -14 48 -40 26 -25 88 -85
138 -133 81 -78 171 -195 166 -214 -1 -5 3 -8 8 -8 6 0 10 -7 10 -15 0 -8 3
-15 8 -15 4 0 16 -21 26 -48 11 -26 26 -63 35 -82 8 -19 15 -37 16 -40 0 -3 4
-11 8 -17 5 -7 6 -17 3 -22 -4 -5 -2 -11 4 -13 5 -1 10 -19 11 -38 2 -19 7
-40 11 -47 5 -6 8 -20 7 -30 -1 -10 1 -25 4 -33 11 -25 13 -289 3 -287 -6 1
-9 -14 -9 -33 0 -19 -3 -40 -8 -46 -6 -7 -9 -16 -8 -20 5 -27 -2 -64 -11 -59
-6 3 -7 -1 -4 -10 4 -8 1 -22 -6 -30 -6 -8 -9 -19 -5 -25 3 -5 2 -10 -4 -10
-5 0 -13 -10 -16 -22 -13 -44 -39 -98 -47 -98 -4 0 -7 -3 -7 -7 4 -19 -24 -72
-34 -66 -6 4 -8 0 -4 -10 3 -9 2 -17 -2 -19 -4 -2 -25 -27 -45 -56 -21 -28
-72 -86 -114 -127 -106 -104 -107 -105 -119 -105 -5 0 -18 -9 -28 -20 -10 -11
-22 -20 -27 -20 -5 0 -34 -16 -64 -35 -30 -19 -59 -35 -64 -35 -5 0 -27 -9
-49 -21 -22 -11 -50 -22 -63 -23 -13 -2 -30 -6 -38 -9 -60 -24 -104 -33 -157
-33 -34 1 -59 -2 -57 -6 2 -3 -38 -9 -88 -12 -97 -6 -148 -5 -148 5 0 3 -10 6
-22 6 -74 5 -89 7 -94 15 -3 4 -10 6 -15 2 -5 -3 -15 -2 -22 3 -7 5 -31 15
-55 22 -97 27 -262 118 -346 191 -45 38 -149 145 -166 170 -14 21 -37 50 -60
78 -6 6 -8 12 -5 12 4 0 -1 7 -9 16 -9 8 -16 21 -16 29 0 7 -4 15 -8 17 -4 2
-23 39 -42 83 -19 44 -38 86 -43 93 -6 7 -6 12 0 12 10 0 10 24 0 50 -6 15
-15 58 -24 120 -15 94 -14 275 2 358 9 48 19 94 22 102 4 8 5 19 4 24 -1 4 4
14 10 22 6 8 8 14 4 14 -4 0 -3 6 2 13 5 6 20 38 33 70 12 31 27 57 32 57 5 0
6 5 2 11 -3 6 -3 14 2 18 5 3 16 18 24 32 58 101 170 229 263 303 20 16 37 35
37 42 0 7 9 16 20 19 11 3 20 11 20 16 0 5 5 9 10 9 6 0 28 11 50 25 21 14 45
26 52 27 7 2 15 6 18 9 7 8 136 56 185 68 69 17 98 22 160 28 33 2 61 6 63 7
4 5 154 -2 207 -10z"/>
<path d="M2573 3269 c-23 -3 -49 -4 -58 -3 -8 1 -15 -2 -15 -7 0 -6 -4 -8 -8
-5 -10 6 -123 -22 -138 -35 -7 -5 -16 -9 -20 -7 -8 2 -48 -17 -135 -64 -24
-13 -25 -16 -12 -33 19 -27 43 -60 100 -133 26 -35 53 -71 58 -80 6 -10 13
-19 16 -22 3 -3 45 -59 94 -125 49 -66 92 -122 95 -125 3 -3 23 -30 45 -60 21
-30 40 -57 41 -59 5 -6 28 22 72 87 23 34 39 62 35 62 -5 0 0 5 10 11 9 5 17
17 17 24 0 8 4 15 8 15 5 0 17 16 28 35 10 19 23 35 28 35 5 0 7 3 3 6 -3 4
-1 12 6 20 27 30 37 43 37 49 0 8 44 69 53 73 4 2 7 8 7 12 0 5 20 37 45 72
25 35 52 78 62 96 9 17 21 32 26 32 19 0 -18 32 -57 50 -138 64 -318 96 -443
79z"/>
<path d="M3138 3079 c-10 -10 -15 -19 -11 -19 3 0 -3 -10 -14 -22 -11 -13 -47
-63 -79 -113 -32 -49 -62 -91 -66 -93 -5 -2 -8 -10 -8 -17 0 -7 -7 -16 -16
-19 -8 -3 -12 -10 -9 -16 3 -5 1 -10 -4 -10 -6 0 -11 -4 -11 -10 0 -5 -20 -38
-45 -73 -25 -36 -45 -69 -45 -75 0 -5 -7 -12 -15 -16 -8 -3 -14 -9 -13 -13 3
-8 -18 -41 -60 -93 -25 -32 -26 -64 -2 -66 8 0 28 -6 43 -12 15 -7 39 -15 53
-18 13 -3 27 -10 30 -15 3 -5 16 -9 28 -9 13 0 39 -6 57 -14 19 -7 40 -11 47
-9 6 3 12 1 12 -5 0 -5 43 -19 95 -33 52 -13 95 -26 95 -30 0 -4 8 -6 18 -4 9
1 26 -2 37 -8 22 -12 39 -17 70 -20 11 -1 23 -6 26 -10 4 -5 18 -10 33 -10 14
-1 26 -5 26 -8 0 -4 16 -10 35 -13 43 -8 70 12 63 49 -3 13 -1 26 4 27 17 6 9
259 -9 308 -3 8 -7 20 -8 25 -10 61 -19 95 -25 95 -3 0 -7 6 -7 13 -1 20 -69
158 -75 151 -4 -3 -9 5 -14 18 -8 26 -22 43 -114 140 -69 71 -92 81 -122 47z"/>
<path d="M2019 3023 c-49 -52 -149 -183 -149 -195 0 -3 -9 -25 -19 -49 -11
-24 -20 -48 -20 -53 1 -5 -4 -12 -9 -15 -6 -4 -13 -20 -16 -36 -2 -17 -5 -30
-6 -30 -2 0 -7 -19 -20 -90 -15 -74 -8 -327 9 -333 6 -2 9 -8 5 -13 -13 -21
33 -20 102 1 41 13 74 26 74 30 0 4 10 6 23 5 12 -1 28 2 35 8 7 5 15 7 18 4
4 -3 13 0 20 8 8 8 21 12 29 9 8 -4 15 -1 15 6 0 7 7 10 15 6 9 -3 23 -1 33 4
24 14 138 50 157 50 8 0 15 4 15 9 0 6 9 8 20 6 11 -2 22 0 25 6 4 5 17 9 30
9 13 0 27 5 30 10 4 6 11 8 16 5 5 -4 9 -1 9 6 0 7 8 9 21 6 12 -3 18 -3 14 1
-3 3 11 11 32 17 43 12 51 39 21 66 -10 9 -18 21 -18 27 0 6 -6 15 -13 19 -7
4 -20 19 -29 33 -8 14 -24 35 -34 47 -11 11 -26 31 -34 43 -8 12 -23 31 -32
42 -10 12 -18 25 -18 30 0 5 -13 22 -29 38 -15 16 -44 53 -64 82 -19 29 -43
63 -54 76 -10 12 -27 34 -38 48 -11 14 -28 35 -39 47 -10 12 -25 32 -33 45 -9
12 -21 22 -27 22 -7 0 -37 -26 -67 -57z"/>
<path d="M2686 2352 c-2 -4 -4 -189 -4 -410 l0 -402 58 0 c33 0 62 5 66 11 3
6 21 9 39 7 19 -2 31 0 29 4 -3 4 9 8 25 8 17 0 31 5 31 10 0 6 3 9 8 8 18 -4
160 66 178 88 6 8 13 11 16 8 3 -3 23 11 44 31 22 20 49 43 62 52 12 9 50 50
83 92 86 109 89 114 89 128 0 7 4 13 9 13 5 0 12 14 16 30 4 17 11 30 17 30 6
0 8 3 5 7 -4 3 -1 13 5 21 10 11 7 17 -12 32 -13 10 -30 16 -37 13 -7 -3 -13
-1 -13 4 0 5 -12 10 -26 11 -14 1 -31 5 -37 9 -7 4 -18 9 -24 10 -23 5 -38 10
-63 20 -14 5 -58 18 -97 28 -40 11 -73 23 -73 28 0 4 -4 5 -10 2 -5 -3 -16 -3
-22 2 -7 4 -24 9 -38 11 -13 2 -30 7 -36 13 -6 5 -14 6 -17 2 -4 -3 -12 -1
-19 4 -14 11 -72 32 -110 38 -13 3 -49 13 -81 24 -31 11 -59 17 -61 13z"/>
<path d="M2567 2329 c-9 -6 -17 -7 -17 -4 0 3 -13 -1 -30 -10 -16 -9 -30 -13
-30 -11 0 3 -16 -2 -35 -10 -19 -8 -38 -14 -42 -14 -8 0 -94 -26 -123 -37 -8
-3 -19 -7 -25 -8 -5 -2 -53 -17 -107 -34 -53 -18 -104 -33 -115 -36 -10 -2
-31 -9 -48 -16 -16 -7 -32 -13 -35 -14 -94 -24 -110 -30 -110 -45 0 -23 95
-185 133 -227 77 -86 137 -137 222 -190 55 -35 190 -90 240 -98 11 -2 36 -7
55 -10 82 -14 85 -13 85 25 -1 19 4 38 10 42 6 5 6 8 0 8 -11 0 -12 120 -1
138 4 7 4 12 -1 12 -4 0 -8 22 -8 50 0 27 3 50 6 50 3 0 3 23 -1 50 -4 29 -2
50 3 50 5 0 4 6 -2 14 -9 11 -9 15 1 19 11 4 11 6 0 6 -10 1 -10 6 -2 21 8 14
8 20 0 20 -6 0 -8 5 -5 10 7 11 10 248 3 255 -2 2 -11 -1 -21 -6z"/>
<path d="M4712 3520 c-29 -4 -58 -13 -66 -19 -7 -6 -16 -8 -19 -5 -3 3 -20 -4
-36 -16 -17 -12 -31 -18 -31 -15 0 15 -101 -91 -106 -112 -4 -13 -10 -23 -14
-23 -4 0 -16 -21 -27 -48 -24 -56 -30 -192 -12 -237 7 -17 11 -34 10 -38 -4
-19 73 -119 117 -152 26 -19 52 -38 57 -43 6 -4 17 -7 25 -7 8 1 20 -3 26 -7
7 -5 16 -8 20 -7 5 1 20 -2 34 -8 40 -16 107 -14 169 4 31 9 59 16 64 15 4 -1
7 2 7 7 0 5 8 11 18 13 29 8 35 12 79 52 45 41 103 123 103 147 0 8 6 25 13
39 32 60 16 159 -44 286 -23 48 -40 68 -82 96 -67 46 -93 59 -101 51 -3 -3 -6
-1 -6 5 0 6 -21 14 -47 17 -27 3 -59 8 -73 9 -14 2 -49 0 -78 -4z"/>
<path d="M431 3481 c-8 -5 -20 -7 -28 -4 -7 3 -21 -1 -30 -8 -14 -12 -16 -12
-8 1 8 13 7 13 -8 1 -9 -7 -17 -11 -17 -7 0 15 -119 -61 -155 -99 -60 -66 -63
-70 -84 -124 -33 -88 -19 -263 24 -293 5 -4 6 -8 2 -8 -23 0 114 -150 138
-150 7 0 18 -6 24 -14 7 -8 35 -20 64 -26 29 -7 57 -15 62 -19 19 -11 120 -7
145 6 14 7 31 13 39 13 58 0 217 148 219 204 0 5 5 12 11 15 6 4 15 38 20 75
16 111 -8 197 -78 286 -47 59 -65 74 -131 106 -83 41 -83 41 -112 40 -16 -1
-28 2 -28 6 0 11 -52 10 -69 -1z"/>
<path d="M3948 985 c-2 -2 -26 -7 -53 -10 -28 -4 -58 -14 -67 -23 -10 -8 -18
-12 -18 -7 0 9 -69 -42 -93 -69 -9 -12 -26 -31 -36 -44 -66 -76 -82 -255 -34
-370 15 -37 98 -153 105 -147 2 2 17 -7 32 -20 16 -14 37 -25 48 -25 10 0 18
-4 18 -9 0 -9 57 -27 73 -23 4 1 7 -3 7 -8 0 -13 138 -11 146 2 3 4 9 6 14 3
5 -3 29 4 52 17 24 12 47 21 51 20 16 -4 116 106 141 156 46 91 53 222 15 301
-34 74 -46 93 -66 115 -12 13 -19 27 -15 32 4 4 1 4 -6 0 -8 -5 -20 1 -31 16
-24 30 -116 77 -156 80 -16 1 -34 4 -40 7 -11 7 -82 11 -87 6z"/>
<path d="M1265 923 c-38 -8 -71 -19 -73 -24 -2 -5 -11 -9 -20 -9 -21 0 -88
-52 -128 -100 -37 -43 -70 -112 -78 -165 -4 -21 -8 -41 -11 -43 -2 -3 0 -13 5
-23 7 -12 7 -20 0 -24 -6 -4 -7 -12 -3 -18 4 -7 9 -21 10 -32 6 -43 26 -105
34 -105 5 0 9 -6 9 -14 0 -21 95 -110 142 -134 49 -24 83 -33 148 -36 84 -3
223 53 263 106 11 15 23 25 27 23 8 -5 73 120 73 140 0 8 3 15 7 15 4 0 6 16
5 35 0 19 2 35 5 35 3 0 5 14 5 30 1 17 -2 30 -5 30 -3 0 -7 14 -8 32 -1 17
-11 51 -22 75 -10 24 -16 43 -13 43 3 0 -23 28 -58 63 -50 49 -78 68 -127 86
-35 12 -66 20 -69 17 -3 -2 -15 -1 -27 3 -12 5 -51 2 -91 -6z"/>
</g>
</svg>
